<mxfile host="app.diagrams.net" modified="2024-05-14T15:52:35.034Z" agent="Mozilla/5.0 (Windows NT 10.0; Win64; x64) AppleWebKit/537.36 (KHTML, like Gecko) Chrome/124.0.0.0 Safari/537.36" etag="70oXuJPDn8jcy6Ys0wD8" version="24.4.0" type="github">
  <diagram name="Page-1" id="2V4rqOWZvK8FLuukP6qS">
    <mxGraphModel dx="880" dy="1603" grid="0" gridSize="10" guides="1" tooltips="1" connect="1" arrows="1" fold="1" page="1" pageScale="1" pageWidth="827" pageHeight="1169" math="0" shadow="0">
      <root>
        <mxCell id="0" />
        <mxCell id="1" parent="0" />
        <mxCell id="wVcHxcKOub-WD_eu40Rh-1" value="iOS" style="rounded=0;whiteSpace=wrap;html=1;" vertex="1" parent="1">
          <mxGeometry x="120" y="-369" width="120" height="60" as="geometry" />
        </mxCell>
        <mxCell id="wVcHxcKOub-WD_eu40Rh-2" value="Android" style="rounded=0;whiteSpace=wrap;html=1;" vertex="1" parent="1">
          <mxGeometry x="289" y="-369" width="120" height="60" as="geometry" />
        </mxCell>
        <mxCell id="wVcHxcKOub-WD_eu40Rh-3" value="Windows" style="rounded=0;whiteSpace=wrap;html=1;" vertex="1" parent="1">
          <mxGeometry x="466" y="-369" width="120" height="60" as="geometry" />
        </mxCell>
        <mxCell id="wVcHxcKOub-WD_eu40Rh-4" value="MauiProgram.Cs" style="rounded=0;whiteSpace=wrap;html=1;" vertex="1" parent="1">
          <mxGeometry x="294" y="-230" width="120" height="60" as="geometry" />
        </mxCell>
      </root>
    </mxGraphModel>
  </diagram>
</mxfile>
